<?xml version="1.0" encoding="UTF-8" standalone="no"?>
<!DOCTYPE svg PUBLIC "-//W3C//DTD SVG 1.1//EN" "http://www.w3.org/Graphics/SVG/1.1/DTD/svg11.dtd">
<svg width="100%" height="100%" viewBox="0 0 24 24" version="1.1" xmlns="http://www.w3.org/2000/svg" xmlns:xlink="http://www.w3.org/1999/xlink" xml:space="preserve" xmlns:serif="http://www.serif.com/" style="fill-rule:evenodd;clip-rule:evenodd;stroke-linejoin:round;stroke-miterlimit:2;">
    <g transform="matrix(1,0,0,1,-150,0)">
        <g id="close" transform="matrix(1,0,0,1,120,0)">
            <rect x="30" y="0" width="24" height="24" style="fill:none;"/>
            <g id="path5" transform="matrix(0.0261447,0,0,0.0261447,34,3.99998)">
                <path d="M356.781,305.982L601.453,61.311C615.486,47.278 615.486,24.54 601.453,10.537C587.449,-3.496 564.712,-3.496 550.679,10.537L306.007,255.208L61.277,10.536C47.273,-3.497 24.506,-3.497 10.503,10.536C-3.501,24.54 -3.501,47.278 10.503,61.31L255.204,305.982L10.503,550.684C-3.501,564.688 -3.501,587.455 10.503,601.458C17.519,608.475 26.719,611.968 35.89,611.968C45.09,611.968 54.261,608.475 61.277,601.458L305.978,356.757L550.649,601.458C557.666,608.475 566.866,611.968 576.037,611.968C585.236,611.968 594.436,608.475 601.424,601.458C615.457,587.425 615.457,564.687 601.424,550.684L356.781,305.982Z" style="fill-rule:nonzero;"/>
            </g>
        </g>
    </g>
</svg>
