<?xml version="1.0" encoding="UTF-8" standalone="no"?>
<!DOCTYPE svg PUBLIC "-//W3C//DTD SVG 1.1//EN" "http://www.w3.org/Graphics/SVG/1.1/DTD/svg11.dtd">
<svg width="100%" height="100%" viewBox="0 0 24 24" version="1.1" xmlns="http://www.w3.org/2000/svg" xmlns:xlink="http://www.w3.org/1999/xlink" xml:space="preserve" xmlns:serif="http://www.serif.com/" style="fill-rule:evenodd;clip-rule:evenodd;stroke-linejoin:round;stroke-miterlimit:2;">
    <g id="cover" transform="matrix(1,0,0,1,-30,-120)">
        <rect x="30" y="120" width="24" height="24" style="fill:none;"/>
        <g transform="matrix(1.58333,0,0,1.58333,-24.4919,-77)">
            <path d="M48.368,131.539L48.368,138.368L35.632,138.368L35.632,134.666L38.348,132L40.241,133.857L45.486,128.711L48.368,131.539Z"/>
        </g>
        <g transform="matrix(1,0,0,1,30,120)">
            <path d="M23.091,0.917L0.925,0.917L0.925,23.083L23.091,23.083L23.091,0.917ZM21.633,2.375L21.633,21.625C21.633,21.625 2.383,21.625 2.383,21.625C2.383,21.625 2.383,2.375 2.383,2.375L21.633,2.375Z"/>
        </g>
    </g>
</svg>
