<?xml version="1.0" encoding="UTF-8" standalone="no"?>
<!DOCTYPE svg PUBLIC "-//W3C//DTD SVG 1.1//EN" "http://www.w3.org/Graphics/SVG/1.1/DTD/svg11.dtd">
<svg width="100%" height="100%" viewBox="0 0 24 24" version="1.1" xmlns="http://www.w3.org/2000/svg" xmlns:xlink="http://www.w3.org/1999/xlink" xml:space="preserve" xmlns:serif="http://www.serif.com/" style="fill-rule:evenodd;clip-rule:evenodd;stroke-linejoin:round;stroke-miterlimit:2;">
    <g transform="matrix(1,0,0,1,-90,0)">
        <g id="disks" transform="matrix(1,0,0,1,60,0)">
            <rect x="30" y="0" width="24" height="24" style="fill:none;"/>
            <g transform="matrix(1,0,0,1,-60,0)">
                <path d="M94.083,6L94.083,18C94.083,19.003 94.669,19.947 95.703,20.699C97.124,21.733 99.415,22.417 102,22.417C104.585,22.417 106.876,21.733 108.297,20.699C109.331,19.947 109.917,19.003 109.917,18C109.917,18 109.917,6 109.917,6C109.917,4.997 109.331,4.053 108.297,3.301C106.876,2.267 104.585,1.583 102,1.583C99.415,1.583 97.124,2.267 95.703,3.301C94.669,4.053 94.083,4.997 94.083,6ZM100,9.435C100.635,9.532 101.306,9.583 102,9.583C104.381,9.583 106.498,8.977 107.807,8.025C108.593,7.453 109.083,6.763 109.083,6L109.083,5.982C109.076,5.226 108.587,4.543 107.807,3.975C106.498,3.023 104.381,2.417 102,2.417C99.619,2.417 97.502,3.023 96.193,3.975C95.407,4.547 94.917,5.237 94.917,6L94.917,6.018C94.924,6.774 95.413,7.457 96.193,8.025C96.914,8.549 97.88,8.969 99,9.24L99,10.093C97.678,9.795 96.54,9.307 95.703,8.699C95.402,8.48 95.138,8.244 94.917,7.996L94.917,12C94.917,12.763 95.407,13.453 96.193,14.025C96.914,14.549 97.88,14.969 99,15.24L99,16.093C97.678,15.795 96.54,15.307 95.703,14.699C95.402,14.48 95.138,14.244 94.917,13.996L94.917,18C94.917,18.763 95.407,19.453 96.193,20.025C97.502,20.977 99.619,21.583 102,21.583C104.381,21.583 106.498,20.977 107.807,20.025C108.593,19.453 109.083,18.763 109.083,18L109.083,13.996C108.862,14.244 108.598,14.48 108.297,14.699C106.876,15.733 104.585,16.417 102,16.417C101.308,16.417 100.638,16.368 100,16.276L100,15.435C100.635,15.532 101.306,15.583 102,15.583C104.381,15.583 106.498,14.977 107.807,14.025C108.593,13.453 109.083,12.763 109.083,12L109.083,7.996C108.862,8.244 108.598,8.48 108.297,8.699C106.876,9.733 104.585,10.417 102,10.417C101.308,10.417 100.638,10.368 100,10.276L100,9.435Z"/>
            </g>
        </g>
    </g>
</svg>
