<?xml version="1.0" encoding="UTF-8" standalone="no"?>
<!DOCTYPE svg PUBLIC "-//W3C//DTD SVG 1.1//EN" "http://www.w3.org/Graphics/SVG/1.1/DTD/svg11.dtd">
<svg width="100%" height="100%" viewBox="0 0 24 24" version="1.1" xmlns="http://www.w3.org/2000/svg" xmlns:xlink="http://www.w3.org/1999/xlink" xml:space="preserve" xmlns:serif="http://www.serif.com/" style="fill-rule:evenodd;clip-rule:evenodd;stroke-linejoin:round;stroke-miterlimit:2;">
    <g transform="matrix(1,0,0,1,-90,-120)">
        <g id="jpg_file" transform="matrix(1,0,0,1,0,85)">
            <rect x="90" y="35" width="24" height="24" style="fill:none;"/>
            <path d="M94.993,44L92,44L92,54L94.993,54L94.993,57C94.993,57.004 94.996,57.007 95,57.007L109,57.007C109.004,57.007 109.007,57.004 109.007,57L109.007,54L112,54L112,44L109.007,44L109.007,42.046C109.007,42.044 109.006,42.043 109.005,42.041L103.959,36.995C103.957,36.994 103.956,36.993 103.954,36.993L95,36.993C94.996,36.993 94.993,36.996 94.993,37L94.993,44ZM107.34,54L96.66,54L96.66,55.34L107.34,55.34L107.34,54ZM109.37,51.75C109.104,51.858 108.759,51.964 108.335,52.067C107.91,52.17 107.492,52.222 107.079,52.222C106.127,52.222 105.368,51.947 104.803,51.398C104.237,50.849 103.954,50.069 103.954,49.06C103.954,48.111 104.237,47.35 104.803,46.778C105.368,46.205 106.142,45.919 107.124,45.919C107.631,45.919 108.044,45.967 108.361,46.064C108.678,46.16 109.007,46.291 109.346,46.456L109.346,47.876L109.207,47.876C109.134,47.819 109.029,47.739 108.892,47.634C108.755,47.53 108.621,47.441 108.491,47.368C108.339,47.281 108.164,47.206 107.964,47.144C107.765,47.081 107.554,47.05 107.332,47.05C107.071,47.05 106.834,47.091 106.619,47.172C106.405,47.254 106.214,47.378 106.046,47.547C105.886,47.709 105.759,47.916 105.665,48.165C105.572,48.415 105.525,48.705 105.525,49.036C105.525,49.744 105.703,50.266 106.058,50.603C106.413,50.939 106.899,51.107 107.515,51.107L107.897,51.091L107.897,49.903L106.721,49.903L106.721,48.767L109.37,48.767L109.37,51.75ZM97.655,50.318C97.655,50.581 97.611,50.828 97.521,51.06C97.432,51.292 97.296,51.49 97.114,51.652C96.911,51.837 96.671,51.972 96.394,52.059C96.117,52.146 95.799,52.189 95.438,52.189C95.169,52.189 94.917,52.179 94.681,52.159C94.445,52.139 94.237,52.109 94.058,52.071L94.058,50.843L94.197,50.843C94.319,50.891 94.446,50.937 94.579,50.979C94.712,51.021 94.883,51.042 95.092,51.042C95.361,51.042 95.567,51.004 95.713,50.928C95.858,50.852 95.96,50.746 96.02,50.611C96.082,50.478 96.117,50.324 96.123,50.149C96.13,49.974 96.134,49.779 96.134,49.565L96.134,47.136L94.746,47.136L94.746,46.037L97.655,46.037L97.655,50.318ZM103.494,47.95C103.494,48.232 103.45,48.5 103.36,48.755C103.271,49.01 103.142,49.223 102.974,49.394C102.871,49.5 102.757,49.597 102.634,49.687C102.51,49.776 102.374,49.852 102.225,49.915C102.076,49.977 101.914,50.026 101.739,50.061C101.564,50.097 101.368,50.114 101.151,50.114L100.353,50.114L100.353,52.096L98.831,52.096L98.831,46.037L101.183,46.037C101.533,46.037 101.835,46.069 102.089,46.133C102.342,46.196 102.572,46.297 102.778,46.436C103.006,46.588 103.183,46.791 103.307,47.044C103.432,47.298 103.494,47.6 103.494,47.95ZM101.932,47.986C101.932,47.815 101.891,47.668 101.81,47.545C101.729,47.421 101.631,47.336 101.517,47.29C101.373,47.228 101.236,47.192 101.104,47.183C100.972,47.173 100.794,47.168 100.569,47.168L100.353,47.168L100.353,48.983L100.866,48.979C100.993,48.976 101.105,48.967 101.2,48.95C101.281,48.937 101.367,48.91 101.458,48.871C101.549,48.832 101.619,48.788 101.667,48.739C101.771,48.639 101.84,48.534 101.877,48.426C101.914,48.317 101.932,48.171 101.932,47.986ZM107.34,44L107.34,42.734L103.266,38.66L96.66,38.66L96.66,44L107.34,44Z"/>
        </g>
    </g>
</svg>
