<?xml version="1.0" encoding="UTF-8" standalone="no"?>
<!DOCTYPE svg PUBLIC "-//W3C//DTD SVG 1.1//EN" "http://www.w3.org/Graphics/SVG/1.1/DTD/svg11.dtd">
<svg width="100%" height="100%" viewBox="0 0 72 24" version="1.1" xmlns="http://www.w3.org/2000/svg" xmlns:xlink="http://www.w3.org/1999/xlink" xml:space="preserve" xmlns:serif="http://www.serif.com/" style="fill-rule:evenodd;clip-rule:evenodd;stroke-linejoin:round;stroke-miterlimit:2;">
    <g transform="matrix(1,0,0,1,-330,-480)">
        <g id="level_101" transform="matrix(1,0,0,1,-89,180)">
            <rect x="419" y="300" width="72" height="24" style="fill:none;"/>
            <g transform="matrix(3,0,0,1,150.984,267.017)">
                <g transform="matrix(0.333333,0,0,1,-19.9892,-265)">
                    <circle cx="339.983" cy="309.983" r="9.983"/>
                    <path d="M339.983,300C345.493,300 349.967,304.473 349.967,309.983C349.967,315.493 345.493,319.967 339.983,319.967C334.473,319.967 330,315.493 330,309.983C330,304.473 334.473,300 339.983,300ZM339.983,302.083C344.343,302.083 347.883,305.623 347.883,309.983C347.883,314.343 344.343,317.883 339.983,317.883C335.623,317.883 332.083,314.343 332.083,309.983C332.083,305.623 335.623,302.083 339.983,302.083Z"/>
                </g>
                <g transform="matrix(0.333333,0,0,1,-11.9892,-265)">
                    <path d="M339.983,300C345.493,300 349.967,304.473 349.967,309.983C349.967,315.493 345.493,319.967 339.983,319.967C334.473,319.967 330,315.493 330,309.983C330,304.473 334.473,300 339.983,300ZM339.983,302.083C344.343,302.083 347.883,305.623 347.883,309.983C347.883,314.343 344.343,317.883 339.983,317.883C335.623,317.883 332.083,314.343 332.083,309.983C332.083,305.623 335.623,302.083 339.983,302.083Z"/>
                </g>
                <g transform="matrix(0.333333,0,0,1,-3.98917,-265)">
                    <circle cx="339.983" cy="309.983" r="9.983"/>
                    <path d="M339.983,300C345.493,300 349.967,304.473 349.967,309.983C349.967,315.493 345.493,319.967 339.983,319.967C334.473,319.967 330,315.493 330,309.983C330,304.473 334.473,300 339.983,300ZM339.983,302.083C344.343,302.083 347.883,305.623 347.883,309.983C347.883,314.343 344.343,317.883 339.983,317.883C335.623,317.883 332.083,314.343 332.083,309.983C332.083,305.623 335.623,302.083 339.983,302.083Z"/>
                </g>
            </g>
        </g>
    </g>
</svg>
