<?xml version="1.0" encoding="UTF-8" standalone="no"?>
<!DOCTYPE svg PUBLIC "-//W3C//DTD SVG 1.1//EN" "http://www.w3.org/Graphics/SVG/1.1/DTD/svg11.dtd">
<svg width="100%" height="100%" viewBox="0 0 24 24" version="1.1" xmlns="http://www.w3.org/2000/svg" xmlns:xlink="http://www.w3.org/1999/xlink" xml:space="preserve" xmlns:serif="http://www.serif.com/" style="fill-rule:evenodd;clip-rule:evenodd;stroke-linejoin:round;stroke-miterlimit:2;">
    <g transform="matrix(1,0,0,1,-150,-120)">
        <g id="log" transform="matrix(1,0,0,1,120,-2.84217e-14)">
            <rect x="30" y="120" width="24" height="24" style="fill:none;"/>
            <g id="path5860" transform="matrix(0.633126,0,0,0.633126,31.87,121.87)">
                <path d="M30.981,20.648C30.907,20.343 30.634,20.129 30.321,20.129L28.487,20.129L30.631,19.026C30.91,18.883 31.055,18.567 30.981,18.263C30.907,17.958 30.634,17.744 30.321,17.744L26.845,17.744L28.19,16.237C28.191,16.236 28.191,16.235 28.192,16.234C28.235,16.186 28.269,16.134 28.295,16.078C28.297,16.075 28.298,16.072 28.3,16.069C28.325,16.014 28.343,15.956 28.352,15.898C28.353,15.891 28.354,15.886 28.355,15.88C28.359,15.852 28.362,15.823 28.362,15.795C28.362,15.794 28.362,15.794 28.362,15.793C28.363,15.764 28.361,15.736 28.357,15.708C28.357,15.7 28.356,15.692 28.354,15.684C28.35,15.658 28.345,15.632 28.338,15.606C28.338,15.604 28.337,15.602 28.337,15.599C28.329,15.571 28.319,15.544 28.307,15.517C28.306,15.514 28.305,15.51 28.303,15.507C28.302,15.502 28.299,15.499 28.297,15.496C28.287,15.473 28.275,15.451 28.262,15.43C28.259,15.426 28.257,15.421 28.255,15.417C28.24,15.394 28.224,15.373 28.207,15.352C28.199,15.343 28.191,15.334 28.183,15.326C28.178,15.32 28.174,15.315 28.169,15.309L22.019,9.037L28.19,2.126C28.368,1.927 28.412,1.641 28.303,1.397C28.194,1.152 27.951,0.995 27.683,0.995L8.273,0.995C8.079,0.995 7.895,1.078 7.766,1.222L1.173,8.607C1.171,8.609 1.169,8.611 1.167,8.613C1.148,8.636 1.129,8.659 1.113,8.684C1.112,8.686 1.111,8.688 1.109,8.69C1.094,8.713 1.081,8.737 1.069,8.762C1.066,8.767 1.064,8.773 1.061,8.778C1.037,8.832 1.02,8.887 1.01,8.944C1.009,8.952 1.008,8.958 1.007,8.965C1.003,8.993 1.001,9.02 1,9.047C1,9.048 1,9.05 1,9.051C1,9.08 1.002,9.108 1.005,9.137C1.006,9.144 1.007,9.151 1.008,9.158C1.012,9.186 1.018,9.214 1.025,9.242C1.025,9.242 1.025,9.243 1.026,9.243C1.034,9.272 1.044,9.3 1.056,9.328C1.058,9.33 1.058,9.334 1.059,9.336C1.061,9.339 1.062,9.341 1.064,9.343C1.076,9.37 1.089,9.396 1.105,9.421C1.106,9.422 1.106,9.422 1.107,9.423C1.122,9.448 1.14,9.471 1.159,9.494C1.164,9.5 1.169,9.505 1.175,9.511C1.181,9.519 1.187,9.526 1.194,9.533L7.343,15.805L1.173,22.716C1.17,22.718 1.169,22.721 1.167,22.723C1.148,22.745 1.13,22.768 1.114,22.792C1.112,22.796 1.11,22.798 1.108,22.801C1.094,22.823 1.081,22.846 1.069,22.87C1.067,22.876 1.064,22.881 1.061,22.887C1.049,22.914 1.038,22.941 1.03,22.97C1.03,22.97 1.029,22.971 1.029,22.971C1.021,22.997 1.015,23.025 1.01,23.053C1.009,23.061 1.008,23.067 1.007,23.074C1.004,23.098 1.002,23.123 1.001,23.148C1.001,23.153 1,23.157 1,23.163C1,23.164 1,23.166 1,23.167C1,23.195 1.002,23.222 1.005,23.248C1.006,23.255 1.007,23.261 1.008,23.268C1.012,23.292 1.017,23.317 1.023,23.341C1.025,23.346 1.026,23.351 1.027,23.356C1.036,23.385 1.046,23.414 1.058,23.441C1.059,23.442 1.059,23.443 1.059,23.444C1.06,23.446 1.062,23.448 1.063,23.452C1.075,23.476 1.087,23.5 1.101,23.522C1.104,23.527 1.107,23.532 1.11,23.536C1.126,23.561 1.143,23.584 1.161,23.605C1.165,23.61 1.169,23.614 1.173,23.619C1.189,23.637 1.206,23.654 1.224,23.67C1.229,23.674 1.233,23.678 1.238,23.683C1.26,23.701 1.283,23.719 1.306,23.734C1.31,23.736 1.314,23.74 1.318,23.742C1.34,23.755 1.362,23.767 1.385,23.778C1.39,23.781 1.395,23.784 1.4,23.786C1.427,23.798 1.454,23.809 1.483,23.817C1.485,23.818 1.488,23.818 1.49,23.819C1.516,23.827 1.542,23.832 1.568,23.837C1.576,23.838 1.583,23.839 1.59,23.84C1.619,23.844 1.648,23.846 1.679,23.846L21.089,23.846C21.115,23.846 21.141,23.844 21.166,23.842C21.174,23.841 21.182,23.84 21.19,23.838C21.207,23.836 21.224,23.832 21.241,23.828C21.251,23.826 21.26,23.823 21.269,23.821C21.284,23.816 21.3,23.812 21.315,23.806C21.324,23.803 21.333,23.799 21.343,23.796C21.357,23.79 21.372,23.784 21.386,23.777C21.39,23.775 21.395,23.772 21.4,23.77L25.847,21.484L27.516,21.484L20.925,24.873L1.679,24.873C1.304,24.873 1,25.177 1,25.552C1,25.927 1.304,26.231 1.679,26.231L21.09,26.231C21.198,26.231 21.304,26.205 21.4,26.156L25.847,23.869L27.516,23.869L20.925,27.258L1.679,27.258C1.304,27.258 1,27.562 1,27.937C1,28.312 1.304,28.616 1.679,28.616L21.09,28.616C21.198,28.616 21.304,28.59 21.4,28.541L25.847,26.254L27.516,26.254L20.925,29.644L1.679,29.644C1.304,29.647 1,29.951 1,30.326C1,30.701 1.304,31.005 1.679,31.005L21.09,31.005C21.198,31.005 21.304,30.979 21.4,30.93L30.631,26.182C30.91,26.039 31.055,25.724 30.981,25.419C30.907,25.114 30.634,24.9 30.321,24.9L28.487,24.9L30.631,23.797C30.91,23.654 31.054,23.338 30.981,23.034C30.907,22.729 30.634,22.514 30.321,22.514L28.487,22.514L30.631,21.412C30.91,21.268 31.055,20.953 30.981,20.648L30.981,20.648ZM27.516,19.101L24.033,20.893L25.632,19.101L27.516,19.101ZM3.195,22.491L8.577,16.464L17.803,16.464C18.178,16.464 18.482,16.16 18.482,15.785C18.482,15.41 18.178,15.106 17.803,15.106L8.557,15.106L3.295,9.739L5.786,9.739C6.161,9.739 6.465,9.435 6.465,9.06C6.465,8.685 6.161,8.381 5.786,8.381L3.195,8.381L8.577,2.354L26.167,2.354L20.786,8.381L8.501,8.381C8.126,8.381 7.823,8.685 7.823,9.06C7.823,9.435 8.126,9.739 8.501,9.739L20.805,9.739L26.066,15.106L20.518,15.106C20.143,15.106 19.839,15.41 19.839,15.785C19.839,16.16 20.143,16.464 20.518,16.464L26.167,16.464L20.786,22.491L3.195,22.491L3.195,22.491Z" style="fill-rule:nonzero;"/>
            </g>
        </g>
    </g>
</svg>
