<?xml version="1.0" encoding="UTF-8" standalone="no"?>
<!DOCTYPE svg PUBLIC "-//W3C//DTD SVG 1.1//EN" "http://www.w3.org/Graphics/SVG/1.1/DTD/svg11.dtd">
<svg width="100%" height="100%" viewBox="0 0 24 24" version="1.1" xmlns="http://www.w3.org/2000/svg" xmlns:xlink="http://www.w3.org/1999/xlink" xml:space="preserve" xmlns:serif="http://www.serif.com/" style="fill-rule:evenodd;clip-rule:evenodd;stroke-miterlimit:1.5;">
    <g transform="matrix(1,0,0,1,-210,0)">
        <g id="log" transform="matrix(1,0,0,1,120,-35)">
            <rect x="90" y="35" width="24" height="24" style="fill:none;"/>
            <g transform="matrix(0.568512,-0.32823,3.15587e-17,0.656461,-7.61656,-13.5225)">
                <circle cx="200.5" cy="193.5" r="8.5" style="fill:none;stroke:black;stroke-width:1.35px;"/>
            </g>
            <g transform="matrix(1,0,0,1,-90,-146.096)">
                <path d="M191.538,196.591L191.538,203.676L190.913,202.715L190.289,202.955L189.665,201.995L189.041,202.234L188.416,201.274L187.792,201.513L187.168,200.553L186.543,200.792L185.919,199.832L185.295,200.071L184.67,199.111L184.046,199.351L183.422,198.39L182.798,198.63L182.798,191.545C182.798,188.465 184.963,184.715 187.63,183.175C188.688,182.564 189.667,182.392 190.463,182.6C191.113,182.769 199.524,187.684 199.933,187.963C200.721,188.501 201.202,189.546 201.202,190.998C201.202,194.078 199.037,197.828 196.37,199.368C193.703,200.908 191.538,199.658 191.538,196.578L191.538,196.591" style="fill:none;stroke:black;stroke-width:0.63px;stroke-linecap:square;"/>
            </g>
            <g transform="matrix(1,0,0,1,-90,-146.096)">
                <path d="M182.798,191L191.538,196" style="fill:none;stroke:black;stroke-width:0.42px;stroke-linecap:square;stroke-dasharray:0.42,0.83,0,0;"/>
            </g>
            <g transform="matrix(0.866025,-0.5,4.80741e-17,1,-64.2369,-47.8075)">
                <circle cx="197" cy="194" r="2" style="fill:none;stroke:black;stroke-width:0.59px;stroke-linecap:square;"/>
            </g>
        </g>
    </g>
</svg>
