<?xml version="1.0" encoding="UTF-8" standalone="no"?>
<!DOCTYPE svg PUBLIC "-//W3C//DTD SVG 1.1//EN" "http://www.w3.org/Graphics/SVG/1.1/DTD/svg11.dtd">
<svg width="100%" height="100%" viewBox="0 0 24 24" version="1.1" xmlns="http://www.w3.org/2000/svg" xmlns:xlink="http://www.w3.org/1999/xlink" xml:space="preserve" xmlns:serif="http://www.serif.com/" style="fill-rule:evenodd;clip-rule:evenodd;stroke-miterlimit:1.5;">
    <g transform="matrix(1,0,0,1,-240,0)">
        <g id="log" transform="matrix(1,0,0,1,150,-35)">
            <rect x="90" y="35" width="24" height="24" style="fill:none;"/>
            <path d="M92.839,44.705C93.144,41.788 95.174,38.497 97.63,37.079C98.688,36.468 99.667,36.296 100.463,36.504C101.071,36.662 108.462,40.969 109.754,41.758C108.883,41.272 107.688,41.352 106.37,42.113C103.928,43.523 101.906,46.786 101.584,49.691L101.4,49.586L101.333,49.703L101.329,49.696L101.329,49.709L101.193,49.947L101.329,50.025L101.329,50.113L101.538,50.113L101.55,50.103C101.541,50.231 101.538,50.357 101.538,50.482L101.538,57.58L100.913,56.62L100.289,56.859L99.665,55.899L99.041,56.138L98.416,55.178L97.792,55.417L97.168,54.457L96.543,54.697L95.919,53.736L95.295,53.976L94.67,53.015L94.046,53.255L93.422,52.294L92.798,52.534L92.798,45.449C92.798,45.35 92.8,45.249 92.805,45.148L93.237,45.395L93.444,45.034L92.905,44.726C92.879,44.711 92.857,44.704 92.839,44.705ZM100.108,49.327L100.832,49.74L101.039,49.379L100.315,48.965L100.108,49.327ZM99.023,48.706L99.747,49.12L99.954,48.758L99.23,48.344L99.023,48.706ZM97.938,48.085L98.662,48.499L98.869,48.137L98.145,47.723L97.938,48.085ZM96.853,47.464L97.577,47.878L97.784,47.517L97.06,47.103L96.853,47.464ZM95.768,46.844L96.492,47.258L96.699,46.896L95.975,46.482L95.768,46.844ZM94.683,46.223L95.407,46.637L95.614,46.275L94.89,45.861L94.683,46.223ZM93.598,45.602L94.322,46.016L94.529,45.654L93.805,45.241L93.598,45.602ZM111.197,44.635L111.202,44.903L111.196,44.627L111.197,44.635ZM111.18,44.377L111.191,44.538L111.178,44.362L111.18,44.377ZM111.153,44.129L111.167,44.26L111.149,44.107L111.153,44.129ZM111.115,43.891L111.133,44.002L111.109,43.863L111.115,43.891ZM111.067,43.663L111.087,43.759L111.058,43.629L111.067,43.663ZM111.009,43.446L111.031,43.528L110.996,43.407L111.009,43.446ZM110.941,43.239L110.964,43.309L110.923,43.195L110.941,43.239ZM110.863,43.042L110.887,43.102L110.841,42.995L110.863,43.042ZM110.777,42.856L110.8,42.907L110.749,42.806L110.777,42.856ZM110.681,42.681L110.704,42.723L110.647,42.628L110.681,42.681ZM110.577,42.517L110.598,42.551L110.536,42.463L110.577,42.517ZM110.464,42.364L110.483,42.391L110.416,42.309L110.464,42.364ZM110.343,42.223L110.36,42.242L110.287,42.166L110.343,42.223ZM110.214,42.093L110.227,42.107L110.148,42.036L110.214,42.093ZM110.077,41.974L110.087,41.983L109.999,41.916L110.077,41.974ZM109.933,41.867L109.939,41.872L109.903,41.849L109.933,41.867Z"/>
            <g transform="matrix(0.568512,-0.32823,3.15587e-17,0.656461,-7.61656,-13.5225)">
                <circle cx="200.5" cy="193.5" r="8.5" style="fill:none;stroke:black;stroke-width:1.35px;"/>
            </g>
            <g transform="matrix(0.866025,-0.5,4.80741e-17,1,-64.2369,-47.8075)">
                <circle cx="197" cy="194" r="2"/>
            </g>
        </g>
    </g>
</svg>
