<?xml version="1.0" encoding="UTF-8" standalone="no"?>
<!DOCTYPE svg PUBLIC "-//W3C//DTD SVG 1.1//EN" "http://www.w3.org/Graphics/SVG/1.1/DTD/svg11.dtd">
<svg width="100%" height="100%" viewBox="0 0 24 24" version="1.1" xmlns="http://www.w3.org/2000/svg" xmlns:xlink="http://www.w3.org/1999/xlink" xml:space="preserve" xmlns:serif="http://www.serif.com/" style="fill-rule:evenodd;clip-rule:evenodd;stroke-linejoin:round;stroke-miterlimit:2;">
    <g transform="matrix(1,0,0,1,-60,-180)">
        <g id="open_folder" transform="matrix(1,0,0,1,-30,145)">
            <rect x="90" y="35" width="24" height="24" style="fill:none;"/>
            <path d="M100.137,43.211L98.316,45.032L92,45.032L92,57.032L110,57.032L110,46L110.968,46L110.968,58C110.968,58 91.032,58 91.032,58C91.032,58 91.032,42.063 91.032,42.063C91.032,42.063 98.989,42.063 98.989,42.063L100.137,43.211Z"/>
            <g transform="matrix(1,0,0,1,92,33)">
                <path d="M14,3L14,5L17.59,5L7.76,14.83L9.17,16.24L19,6.41L19,10L21,10L21,3L14,3Z"/>
            </g>
        </g>
    </g>
</svg>
