<?xml version="1.0" encoding="UTF-8" standalone="no"?>
<!DOCTYPE svg PUBLIC "-//W3C//DTD SVG 1.1//EN" "http://www.w3.org/Graphics/SVG/1.1/DTD/svg11.dtd">
<svg width="100%" height="100%" viewBox="0 0 24 24" version="1.1" xmlns="http://www.w3.org/2000/svg" xmlns:xlink="http://www.w3.org/1999/xlink" xml:space="preserve" xmlns:serif="http://www.serif.com/" style="fill-rule:evenodd;clip-rule:evenodd;stroke-linejoin:round;stroke-miterlimit:2;">
    <g transform="matrix(1,0,0,1,-60,-60)">
        <g id="open_parent_folder" transform="matrix(1,0,0,1,-30,25)">
            <rect x="90" y="35" width="24" height="24" style="fill:none;"/>
            <path d="M98.305,46.806L99.485,45.627L96.036,45.627L96.036,42.781L100.232,42.781L100.232,37.186L97.188,37.186L97.188,36L91.692,36L91.692,42.783L94.858,42.783L94.858,55.251L103.768,55.251L103.768,58L112.308,58L112.308,52.402L109.262,52.402L109.262,51.216L103.768,51.216L103.768,54.071L96.037,54.071L96.037,46.806L98.305,46.806ZM103.768,49.12L103.768,49.161C103.768,49.161 112.307,49.161 112.307,49.161L112.307,44.753L109.247,44.753L109.247,43.641L103.768,49.12Z"/>
            <g transform="matrix(1,0,0,1,92,33)">
                <path d="M14,3L14,5L17.59,5L7.76,14.83L9.17,16.24L19,6.41L19,10L21,10L21,3L14,3Z"/>
            </g>
        </g>
    </g>
</svg>
