<?xml version="1.0" encoding="UTF-8" standalone="no"?>
<!DOCTYPE svg PUBLIC "-//W3C//DTD SVG 1.1//EN" "http://www.w3.org/Graphics/SVG/1.1/DTD/svg11.dtd">
<svg width="100%" height="100%" viewBox="0 0 24 24" version="1.1" xmlns="http://www.w3.org/2000/svg" xmlns:xlink="http://www.w3.org/1999/xlink" xml:space="preserve" xmlns:serif="http://www.serif.com/" style="fill-rule:evenodd;clip-rule:evenodd;stroke-linejoin:round;stroke-miterlimit:2;">
    <g transform="matrix(1,0,0,1,-60,-120)">
        <g id="png_file" transform="matrix(1,0,0,1,-30,85)">
            <rect x="90" y="35" width="24" height="24" style="fill:none;"/>
            <path d="M94.993,44L92,44L92,54L94.993,54L94.993,57C94.993,57.004 94.996,57.007 95,57.007L109,57.007C109.004,57.007 109.007,57.004 109.007,57L109.007,54L112,54L112,44L109.007,44L109.007,42.046C109.007,42.044 109.006,42.043 109.005,42.041L103.959,36.995C103.957,36.994 103.956,36.993 103.954,36.993L95,36.993C94.996,36.993 94.993,36.996 94.993,37L94.993,44ZM107.34,54L96.66,54L96.66,55.34L107.34,55.34L107.34,54ZM110.495,51.75C110.229,51.858 109.884,51.964 109.46,52.067C109.035,52.17 108.617,52.222 108.204,52.222C107.252,52.222 106.493,51.947 105.928,51.398C105.362,50.849 105.079,50.069 105.079,49.06C105.079,48.111 105.362,47.35 105.928,46.778C106.493,46.205 107.267,45.919 108.249,45.919C108.756,45.919 109.169,45.967 109.486,46.064C109.803,46.16 110.132,46.291 110.471,46.456L110.471,47.876L110.332,47.876C110.259,47.819 110.154,47.739 110.017,47.634C109.88,47.53 109.747,47.441 109.616,47.368C109.464,47.281 109.289,47.206 109.089,47.144C108.89,47.081 108.679,47.05 108.457,47.05C108.196,47.05 107.959,47.091 107.745,47.172C107.53,47.254 107.339,47.378 107.171,47.547C107.011,47.709 106.884,47.916 106.79,48.165C106.697,48.415 106.65,48.705 106.65,49.036C106.65,49.744 106.828,50.266 107.183,50.603C107.538,50.939 108.024,51.107 108.64,51.107L109.022,51.091L109.022,49.903L107.846,49.903L107.846,48.767L110.495,48.767L110.495,51.75ZM98.199,47.95C98.199,48.232 98.154,48.5 98.064,48.755C97.975,49.01 97.846,49.223 97.678,49.394C97.575,49.5 97.461,49.597 97.338,49.687C97.215,49.776 97.078,49.852 96.929,49.915C96.78,49.977 96.618,50.026 96.443,50.061C96.268,50.097 96.072,50.114 95.855,50.114L95.057,50.114L95.057,52.096L93.536,52.096L93.536,46.037L95.887,46.037C96.237,46.037 96.539,46.069 96.793,46.133C97.046,46.196 97.276,46.297 97.483,46.436C97.71,46.588 97.887,46.791 98.011,47.044C98.136,47.298 98.199,47.6 98.199,47.95ZM104.205,52.096L102.74,52.096L100.404,47.872L100.404,52.096L99.012,52.096L99.012,46.037L100.88,46.037L102.813,49.508L102.813,46.037L104.205,46.037L104.205,52.096ZM96.636,47.986C96.636,47.815 96.595,47.668 96.514,47.545C96.433,47.421 96.335,47.336 96.221,47.29C96.077,47.228 95.94,47.192 95.808,47.183C95.677,47.173 95.498,47.168 95.273,47.168L95.057,47.168L95.057,48.983L95.57,48.979C95.698,48.976 95.809,48.967 95.904,48.95C95.985,48.937 96.071,48.91 96.162,48.871C96.253,48.832 96.323,48.788 96.372,48.739C96.475,48.639 96.545,48.534 96.581,48.426C96.618,48.317 96.636,48.171 96.636,47.986ZM107.34,44L107.34,42.734L103.266,38.66L96.66,38.66L96.66,44L107.34,44Z"/>
        </g>
    </g>
</svg>
