<?xml version="1.0" encoding="UTF-8" standalone="no"?>
<!DOCTYPE svg PUBLIC "-//W3C//DTD SVG 1.1//EN" "http://www.w3.org/Graphics/SVG/1.1/DTD/svg11.dtd">
<svg width="100%" height="100%" viewBox="0 0 24 24" version="1.1" xmlns="http://www.w3.org/2000/svg" xmlns:xlink="http://www.w3.org/1999/xlink" xml:space="preserve" xmlns:serif="http://www.serif.com/" style="fill-rule:evenodd;clip-rule:evenodd;stroke-miterlimit:1.5;">
    <g transform="matrix(1,0,0,1,-120,-120)">
        <g id="remote_offline" transform="matrix(1,0,0,1,30,85)">
            <rect x="90" y="35" width="24" height="24" style="fill:none;"/>
            <g transform="matrix(0.916667,0,0,0.916667,8.5,3.91667)">
                <path d="M96.413,42.648L97.735,43.97C97.495,44.339 97.315,44.748 97.191,45.182L96.545,45.182C94.536,45.182 92.909,46.809 92.909,48.818C92.909,50.827 94.536,52.455 96.545,52.455L106.22,52.455L108.038,54.273L96.545,54.273C93.536,54.273 91.091,51.827 91.091,48.818C91.091,46.009 93.218,43.691 95.955,43.4L96.413,42.648ZM98.904,40.488C99.828,39.997 100.883,39.727 102,39.727C105.309,39.727 108.064,42.082 108.682,45.218C111.045,45.382 112.909,47.327 112.909,49.727C112.909,51.038 112.354,52.219 111.462,53.046L110.173,51.756C110.739,51.265 111.091,50.538 111.091,49.727C111.091,48.218 109.873,47 108.364,47L107,47L107,46.545C107,43.782 104.764,41.545 102,41.545C101.391,41.545 100.809,41.654 100.272,41.855L98.904,40.488Z"/>
            </g>
            <g transform="matrix(1,0,0,1,90,-25.0073)">
                <path d="M3,64C3,64 18.71,79.71 19.015,80.015" style="fill:none;stroke:rgb(255,0,0);stroke-width:1.67px;"/>
            </g>
        </g>
    </g>
</svg>
