<?xml version="1.0" encoding="UTF-8" standalone="no"?>
<!DOCTYPE svg PUBLIC "-//W3C//DTD SVG 1.1//EN" "http://www.w3.org/Graphics/SVG/1.1/DTD/svg11.dtd">
<svg width="100%" height="100%" viewBox="0 0 24 24" version="1.1" xmlns="http://www.w3.org/2000/svg" xmlns:xlink="http://www.w3.org/1999/xlink" xml:space="preserve" xmlns:serif="http://www.serif.com/" style="fill-rule:evenodd;clip-rule:evenodd;stroke-linejoin:round;stroke-miterlimit:2;">
    <g transform="matrix(1,0,0,1,-90,-120)">
        <g id="remote" transform="matrix(1,0,0,1,0,85)">
            <rect x="90" y="35" width="24" height="24" style="fill:none;"/>
            <g transform="matrix(0.833333,0,0,0.833333,92,37)">
                <path d="M19.35,10.04C18.67,6.59 15.64,4 12,4C9.11,4 6.6,5.64 5.35,8.04C2.34,8.36 0,10.91 0,14C0,17.31 2.69,20 6,20L19,20C21.76,20 24,17.76 24,15C24,12.36 21.95,10.22 19.35,10.04ZM19,18L6,18C3.79,18 2,16.21 2,14C2,11.79 3.79,10 6,10L6.71,10C7.37,7.69 9.48,6 12,6C15.04,6 17.5,8.46 17.5,11.5L17.5,12L19,12C20.66,12 22,13.34 22,15C22,16.66 20.66,18 19,18Z" style="fill-rule:nonzero;"/>
            </g>
        </g>
    </g>
</svg>
