<?xml version="1.0" encoding="UTF-8" standalone="no"?>
<!DOCTYPE svg PUBLIC "-//W3C//DTD SVG 1.1//EN" "http://www.w3.org/Graphics/SVG/1.1/DTD/svg11.dtd">
<svg width="100%" height="100%" viewBox="0 0 24 24" version="1.1" xmlns="http://www.w3.org/2000/svg" xmlns:xlink="http://www.w3.org/1999/xlink" xml:space="preserve" xmlns:serif="http://www.serif.com/" style="fill-rule:evenodd;clip-rule:evenodd;stroke-linejoin:round;stroke-miterlimit:2;">
    <g transform="matrix(1,0,0,1,-90,-240)">
        <g id="scan_startup" transform="matrix(1,0,0,1,60,240)">
            <rect x="30" y="0" width="24" height="24" style="fill:none;"/>
            <g transform="matrix(1,0,0,1,30,0)">
                <path d="M16.809,11.393L16.512,9.903L9.809,9.903L9.809,22.564L11.299,22.564L11.299,17.35L15.469,17.35L15.767,18.84L20.98,18.84L20.98,11.393L16.809,11.393ZM14.913,19.882L16.362,19.882C15.112,20.57 13.731,20.941 12.34,20.992L12.34,19.015C13.124,18.98 13.902,18.814 14.64,18.518L14.913,19.882ZM8.767,20.405C7.627,19.973 6.559,19.301 5.64,18.39C2.14,14.92 2.11,9.28 5.62,5.81C9.13,2.34 14.76,2.34 18.27,5.81L21,3L21,10.12L17.617,10.12L17.366,8.862L15.443,8.862L16.96,7.3C14.23,4.6 9.81,4.5 7.08,7.2C4.35,9.91 4.35,14.28 7.08,16.99C7.591,17.497 8.161,17.909 8.767,18.226L8.767,20.405ZM11.267,15.892L11.267,11.362C11.267,11.362 15.316,11.362 15.316,11.362L15.614,12.851L19.522,12.851C19.522,12.851 19.522,17.382 19.522,17.382C19.522,17.382 16.962,17.382 16.962,17.382C16.962,17.382 16.664,15.892 16.664,15.892L11.267,15.892Z"/>
            </g>
        </g>
    </g>
</svg>
