<?xml version="1.0" encoding="UTF-8" standalone="no"?>
<!DOCTYPE svg PUBLIC "-//W3C//DTD SVG 1.1//EN" "http://www.w3.org/Graphics/SVG/1.1/DTD/svg11.dtd">
<svg width="100%" height="100%" viewBox="0 0 24 24" version="1.1" xmlns="http://www.w3.org/2000/svg" xmlns:xlink="http://www.w3.org/1999/xlink" xml:space="preserve" xmlns:serif="http://www.serif.com/" style="fill-rule:evenodd;clip-rule:evenodd;stroke-linejoin:round;stroke-miterlimit:2;">
    <g transform="matrix(1,0,0,1,0,-240)">
        <g id="scan_config" transform="matrix(1,0,0,1,-30,240)">
            <rect x="30" y="0" width="24" height="24" style="fill:none;"/>
            <g transform="matrix(1,0,0,1,30,0)">
                <path d="M19.692,16.853C19.717,16.655 19.729,16.451 19.729,16.233C19.729,16.022 19.717,15.811 19.686,15.614L20.937,14.572C21.048,14.479 21.079,14.301 21.011,14.17L19.828,11.98C19.754,11.835 19.6,11.789 19.464,11.835L17.992,12.468C17.684,12.218 17.357,12.007 16.994,11.849L16.772,10.174C16.747,10.015 16.624,9.903 16.476,9.903L14.11,9.903C13.962,9.903 13.845,10.015 13.821,10.174L13.599,11.849C13.235,12.007 12.903,12.224 12.601,12.468L11.128,11.835C10.993,11.783 10.839,11.835 10.765,11.98L9.588,14.17C9.514,14.308 9.539,14.479 9.662,14.572L10.913,15.614C10.882,15.811 10.857,16.029 10.857,16.233C10.857,16.438 10.869,16.655 10.9,16.853L9.65,17.895C9.539,17.987 9.508,18.165 9.576,18.297L10.759,20.486C10.832,20.632 10.987,20.678 11.122,20.632L12.595,19.999C12.903,20.249 13.229,20.46 13.593,20.618L13.815,22.293C13.845,22.451 13.962,22.564 14.11,22.564L16.476,22.564C16.624,22.564 16.747,22.451 16.766,22.293L16.988,20.618C17.351,20.46 17.684,20.249 17.986,19.999L19.458,20.632C19.594,20.684 19.748,20.632 19.822,20.486L21.005,18.297C21.079,18.152 21.048,17.987 20.931,17.895L19.692,16.853ZM9.302,20.589C7.961,20.176 6.701,19.442 5.64,18.39C2.14,14.92 2.11,9.28 5.62,5.81C9.13,2.34 14.76,2.34 18.27,5.81L21,3L21,10.12L18.107,10.12L18.087,9.969C17.956,9.127 17.27,8.933 16.484,8.933L15.374,8.933L16.96,7.3C14.23,4.6 9.81,4.5 7.08,7.2C4.35,9.91 4.35,14.28 7.08,16.99C7.44,17.347 7.83,17.658 8.243,17.918C8.19,18.253 8.236,18.603 8.392,18.905L9.302,20.589ZM15.293,18.607C14.073,18.607 13.075,17.539 13.075,16.233C13.075,14.928 14.073,13.86 15.293,13.86C16.513,13.86 17.511,14.928 17.511,16.233C17.511,17.539 16.513,18.607 15.293,18.607Z"/>
            </g>
        </g>
    </g>
</svg>
