<?xml version="1.0" encoding="UTF-8" standalone="no"?>
<!DOCTYPE svg PUBLIC "-//W3C//DTD SVG 1.1//EN" "http://www.w3.org/Graphics/SVG/1.1/DTD/svg11.dtd">
<svg width="100%" height="100%" viewBox="0 0 24 24" version="1.1" xmlns="http://www.w3.org/2000/svg" xmlns:xlink="http://www.w3.org/1999/xlink" xml:space="preserve" xmlns:serif="http://www.serif.com/" style="fill-rule:evenodd;clip-rule:evenodd;stroke-linejoin:round;stroke-miterlimit:2;">
    <g transform="matrix(1,0,0,1,-90,-240)">
        <g id="scan_startup" transform="matrix(1,0,0,1,0,205)">
            <rect x="90" y="35" width="24" height="24" style="fill:none;"/>
            <g transform="matrix(1,0,0,1,90,35)">
                <path d="M14.913,19.882L15.2,19.882C14.313,20.249 13.349,20.466 12.34,20.498L12.34,19.04C13.152,19.003 13.927,18.828 14.644,18.536L14.913,19.882ZM8.767,19.874C5.67,18.602 3.488,15.554 3.488,12C3.488,7.302 7.302,3.488 12,3.488C14.33,3.488 16.442,4.425 17.98,5.944L21,2.924L21,9.995L17.592,9.995L17.366,8.862L15.062,8.862L16.949,6.975C15.675,5.721 13.927,4.946 12,4.946C8.107,4.946 4.946,8.107 4.946,12C4.946,14.728 6.497,17.096 8.767,18.264L8.767,19.874Z"/>
            </g>
            <g transform="matrix(1,0,0,1,0,-205)">
                <path d="M106.809,251.393L106.512,249.903L99.809,249.903L99.809,262.564L101.299,262.564L101.299,257.35L105.469,257.35L105.767,258.84L110.98,258.84L110.98,251.393L106.809,251.393ZM101.267,255.892L101.267,251.362C101.267,251.362 105.316,251.362 105.316,251.362L105.614,252.851L109.522,252.851C109.522,252.851 109.522,257.382 109.522,257.382C109.522,257.382 106.962,257.382 106.962,257.382C106.962,257.382 106.664,255.892 106.664,255.892L101.267,255.892Z"/>
            </g>
        </g>
    </g>
</svg>
