<?xml version="1.0" encoding="UTF-8" standalone="no"?>
<!DOCTYPE svg PUBLIC "-//W3C//DTD SVG 1.1//EN" "http://www.w3.org/Graphics/SVG/1.1/DTD/svg11.dtd">
<svg width="100%" height="100%" viewBox="0 0 24 24" version="1.1" xmlns="http://www.w3.org/2000/svg" xmlns:xlink="http://www.w3.org/1999/xlink" xml:space="preserve" xmlns:serif="http://www.serif.com/" style="fill-rule:evenodd;clip-rule:evenodd;stroke-linejoin:round;stroke-miterlimit:2;">
    <g transform="matrix(1,0,0,1,-60,-240)">
        <g id="scan_more" transform="matrix(1,0,0,1,0,210)">
            <rect x="60" y="30" width="24" height="24" style="fill:none;"/>
            <g transform="matrix(1,0,0,1,60,30)">
                <path d="M8.75,3.796L8.75,5.987C8.15,6.296 7.586,6.7 7.08,7.2C4.35,9.91 4.35,14.28 7.08,16.99C7.586,17.492 8.15,17.902 8.751,18.217L8.75,18.242C8.75,19.261 9.22,20.171 9.955,20.766C8.373,20.404 6.872,19.611 5.64,18.39C2.14,14.92 2.11,9.28 5.62,5.81C6.542,4.898 7.611,4.226 8.75,3.796ZM15.25,18.238C15.865,17.919 16.443,17.503 16.96,16.99C18.32,15.65 19,14.08 19,12.1L21,12.1C21,14.08 20.12,16.65 18.36,18.39C17.128,19.611 15.627,20.404 14.045,20.766C14.78,20.171 15.25,19.261 15.25,18.242L15.25,18.238ZM15.25,3.837C16.348,4.27 17.377,4.928 18.27,5.81L21,3L21,10.12L15.25,10.12L15.25,9.06L16.96,7.3C16.443,6.789 15.865,6.371 15.25,6.048L15.25,3.837Z"/>
                <g transform="matrix(0.666667,0,0,0.666667,4,5.74219)">
                    <g transform="matrix(1.3125,0,0,1.3125,-3.75,-6.1875)">
                        <circle cx="12" cy="19" r="2" style="fill:rgb(242,13,13);"/>
                    </g>
                    <g transform="matrix(1.3125,0,0,1.3125,-3.75,-6.53906)">
                        <rect x="10" y="3" width="4" height="12" style="fill:rgb(242,13,13);fill-rule:nonzero;"/>
                    </g>
                </g>
            </g>
        </g>
    </g>
</svg>
