<?xml version="1.0" encoding="UTF-8" standalone="no"?>
<!DOCTYPE svg PUBLIC "-//W3C//DTD SVG 1.1//EN" "http://www.w3.org/Graphics/SVG/1.1/DTD/svg11.dtd">
<svg width="100%" height="100%" viewBox="0 0 24 24" version="1.1" xmlns="http://www.w3.org/2000/svg" xmlns:xlink="http://www.w3.org/1999/xlink" xml:space="preserve" xmlns:serif="http://www.serif.com/" style="fill-rule:evenodd;clip-rule:evenodd;stroke-linejoin:round;stroke-miterlimit:2;">
    <g transform="matrix(1,0,0,1,-60,-240)">
        <g id="scan_more" transform="matrix(1,0,0,1,-30,205)">
            <rect x="90" y="35" width="24" height="24" style="fill:none;"/>
            <g transform="matrix(1,0,0,1,89.9994,35.0032)">
                <path d="M12.917,20.458C12.617,20.493 12.311,20.509 12.001,20.509C7.303,20.509 3.488,16.695 3.488,11.997C3.488,7.299 7.303,3.484 12.001,3.484C14.33,3.484 16.442,4.422 17.98,5.941L21.001,2.92L21.001,9.992L17.084,9.992L17.084,8.897L15.024,8.897L16.949,6.972C15.676,5.717 13.928,4.943 12.001,4.943C8.107,4.943 4.947,8.104 4.947,11.997C4.947,14.249 6.004,16.255 7.651,17.546L7.651,18.33L8.895,18.33C9.832,18.792 10.886,19.051 12.001,19.051C12.311,19.051 12.617,19.031 12.917,18.991L12.917,20.458Z"/>
            </g>
            <g transform="matrix(1,0,0,1,30,-205)">
                <path d="M74.063,255.313L68.65,255.313L68.65,257.187L74.063,257.187L74.063,262.6L75.937,262.6L75.937,257.187L81.35,257.187L81.35,255.313L75.937,255.313L75.937,249.9L74.063,249.9L74.063,255.313Z"/>
            </g>
        </g>
    </g>
</svg>
