<?xml version="1.0" encoding="UTF-8" standalone="no"?>
<!DOCTYPE svg PUBLIC "-//W3C//DTD SVG 1.1//EN" "http://www.w3.org/Graphics/SVG/1.1/DTD/svg11.dtd">
<svg width="100%" height="100%" viewBox="0 0 24 24" version="1.1" xmlns="http://www.w3.org/2000/svg" xmlns:xlink="http://www.w3.org/1999/xlink" xml:space="preserve" xmlns:serif="http://www.serif.com/" style="fill-rule:evenodd;clip-rule:evenodd;stroke-linejoin:round;stroke-miterlimit:2;">
    <g transform="matrix(1,0,0,1,0,-240)">
        <g id="scan_config" transform="matrix(1,0,0,1,-90,205)">
            <rect x="90" y="35" width="24" height="24" style="fill:none;"/>
            <g transform="matrix(1,0,0,1,90,35)">
                <path d="M8.929,19.931C5.745,18.705 3.488,15.614 3.488,12C3.488,7.302 7.302,3.488 12,3.488C14.33,3.488 16.442,4.425 17.98,5.944L21,2.924L21,9.995L17.242,9.995L17.073,8.874L15.049,8.874L16.949,6.975C15.675,5.721 13.927,4.946 12,4.946C8.107,4.946 4.946,8.107 4.946,12C4.946,14.581 6.335,16.84 8.409,18.063L8.023,18.366L8.929,19.931Z"/>
            </g>
            <g transform="matrix(0.6,0,0,0.6,98.0788,44.0321)">
                <path d="M19.44,12.99L19.43,13.01C19.47,12.68 19.51,12.34 19.51,12C19.51,11.66 19.48,11.34 19.44,11.01L19.45,11.03L21.89,9.11L19.46,4.89L16.59,6.05L16.6,6.06C16.08,5.66 15.51,5.32 14.89,5.06L14.9,5.06L14.44,2L9.57,2L9.13,5.07L9.14,5.07C8.52,5.33 7.95,5.67 7.43,6.07L7.44,6.06L4.56,4.89L2.12,9.11L4.56,11.03L4.57,11.01C4.53,11.34 4.5,11.66 4.5,12C4.5,12.34 4.53,12.68 4.58,13.01L4.57,12.99L2.47,14.64L2.14,14.9L4.57,19.1L7.45,17.95L7.43,17.91C7.96,18.32 8.53,18.66 9.16,18.92L9.13,18.92L9.58,22L14.43,22C14.43,22 14.46,21.82 14.49,21.58L14.87,18.93L14.86,18.93C15.48,18.67 16.06,18.33 16.59,17.92L16.57,17.96L19.45,19.11L21.88,14.91C21.88,14.91 21.74,14.79 21.55,14.65L19.44,12.99ZM12,15.5C10.07,15.5 8.5,13.93 8.5,12C8.5,10.07 10.07,8.5 12,8.5C13.93,8.5 15.5,10.07 15.5,12C15.5,13.93 13.93,15.5 12,15.5Z" style="fill-rule:nonzero;"/>
            </g>
        </g>
    </g>
</svg>
