<?xml version="1.0" encoding="UTF-8" standalone="no"?>
<!DOCTYPE svg PUBLIC "-//W3C//DTD SVG 1.1//EN" "http://www.w3.org/Graphics/SVG/1.1/DTD/svg11.dtd">
<svg width="100%" height="100%" viewBox="0 0 24 24" version="1.1" xmlns="http://www.w3.org/2000/svg" xmlns:xlink="http://www.w3.org/1999/xlink" xml:space="preserve" xmlns:serif="http://www.serif.com/" style="fill-rule:evenodd;clip-rule:evenodd;stroke-linejoin:round;stroke-miterlimit:2;">
    <g transform="matrix(1,0,0,1,-60,-240)">
        <g id="scan_more" transform="matrix(1,0,0,1,0,210)">
            <rect x="60" y="30" width="24" height="24" style="fill:none;"/>
            <g transform="matrix(1,0,0,1,58.975,29.1228)">
                <g transform="matrix(1,0,0,1,1.02435,0.880387)">
                    <path d="M12.616,20.971C10.113,21.148 7.552,20.285 5.64,18.39C2.14,14.92 2.11,9.28 5.62,5.81C9.13,2.34 14.76,2.34 18.27,5.81L21,3L21,10.12L18,10.12L18,8.524L15.771,8.524L16.96,7.3C14.23,4.6 9.81,4.5 7.08,7.2C4.35,9.91 4.35,14.28 7.08,16.99L7.569,17.429L7.569,18.956L11.11,18.956L11.351,18.991C11.574,19.001 11.797,19.012 12.02,19.023L12.616,18.994L12.616,20.971ZM18.858,13.572C18.954,13.108 19,12.618 19,12.1L21,12.1C21,12.565 20.952,13.061 20.851,13.572L18.858,13.572Z"/>
                </g>
                <g transform="matrix(1.4422,0,0,1.44229,-0.974074,-2.32656)">
                    <path d="M13,12.5L13,9L11,9L11,12.5L7.501,12.5L7.501,14.5L11,14.5L11,18L13,18L13,14.5L16.501,14.5L16.501,12.5L13,12.5Z"/>
                </g>
            </g>
        </g>
    </g>
</svg>
