<?xml version="1.0" encoding="UTF-8" standalone="no"?>
<!DOCTYPE svg PUBLIC "-//W3C//DTD SVG 1.1//EN" "http://www.w3.org/Graphics/SVG/1.1/DTD/svg11.dtd">
<svg width="100%" height="100%" viewBox="0 0 24 24" version="1.1" xmlns="http://www.w3.org/2000/svg" xmlns:xlink="http://www.w3.org/1999/xlink" xml:space="preserve" xmlns:serif="http://www.serif.com/" style="fill-rule:evenodd;clip-rule:evenodd;stroke-linejoin:round;stroke-miterlimit:2;">
    <g transform="matrix(1,0,0,1,-30,0)">
        <g id="tc" transform="matrix(1,0,0,1,0,-120)">
            <rect x="30" y="120" width="24" height="24" style="fill:none;"/>
            <g>
                <path d="M46.5,124.674L37.523,124.674L37.523,129.546L46.5,129.546L46.5,124.674ZM45.5,125.674L38.523,125.674L38.523,128.546L45.5,128.546L45.5,125.674Z"/>
                <g transform="matrix(1.1394,0,0,1,-5.85491,120)">
                    <path d="M49.173,0.9L34.827,0.9L34.827,23.1L49.173,23.1L49.173,0.9ZM48.259,1.942L48.259,22.058C48.259,22.058 35.741,22.058 35.741,22.058C35.741,22.058 35.741,1.942 35.741,1.942L48.259,1.942Z"/>
                </g>
            </g>
        </g>
    </g>
</svg>
