<?xml version="1.0" encoding="UTF-8" standalone="no"?>
<!DOCTYPE svg PUBLIC "-//W3C//DTD SVG 1.1//EN" "http://www.w3.org/Graphics/SVG/1.1/DTD/svg11.dtd">
<svg width="100%" height="100%" viewBox="0 0 24 24" version="1.1" xmlns="http://www.w3.org/2000/svg" xmlns:xlink="http://www.w3.org/1999/xlink" xml:space="preserve" xmlns:serif="http://www.serif.com/" style="fill-rule:evenodd;clip-rule:evenodd;stroke-linejoin:round;stroke-miterlimit:2;">
    <g transform="matrix(1,0,0,1,-198,-60)">
        <g id="tutorials" transform="matrix(1,0,0,1,168,60)">
            <rect x="30" y="0" width="24" height="24" style="fill:none;"/>
            <g transform="matrix(1,0,0,1,1.20959,-0.299385)">
                <g transform="matrix(0.801534,-0.462766,4.53961e-17,0.944295,-124.574,42.2927)">
                    <path d="M215.295,65.321L205.03,65.321L205.03,80.921L215.295,80.921L215.295,65.321ZM214.256,66.34L214.256,79.902C214.256,79.902 206.069,79.902 206.069,79.902C206.069,79.902 206.069,66.34 206.069,66.34L214.256,66.34Z"/>
                </g>
                <g transform="matrix(1,0,0,1,-0.173985,0.904071)">
                    <path d="M46.114,5.583L46.114,2.259L37.886,7.01L37.886,21.741L40.764,20.079L40.764,8.671L46.114,5.583ZM45.281,5.101L39.931,8.19L39.931,19.598C39.931,19.598 38.719,20.298 38.719,20.298C38.719,20.298 38.719,7.491 38.719,7.491C38.719,7.491 45.281,3.702 45.281,3.702L45.281,5.101Z"/>
                </g>
                <g transform="matrix(1,0,0,1,-2.23576,-0.290819)">
                    <path d="M46.114,5.583L46.114,2.259L37.886,7.01L37.886,21.741L40.764,20.079L40.764,8.671L46.114,5.583ZM45.281,5.101L39.931,8.19L39.931,19.598C39.931,19.598 38.719,20.298 38.719,20.298C38.719,20.298 38.719,7.491 38.719,7.491C38.719,7.491 45.281,3.702 45.281,3.702L45.281,5.101Z"/>
                </g>
                <g transform="matrix(1,0,0,1,-4.29754,-1.48571)">
                    <path d="M46.114,5.583L46.114,2.259L37.886,7.01L37.886,21.741L40.764,20.079L40.764,8.671L46.114,5.583ZM45.281,5.101L39.931,8.19L39.931,19.598C39.931,19.598 38.719,20.298 38.719,20.298C38.719,20.298 38.719,7.491 38.719,7.491C38.719,7.491 45.281,3.702 45.281,3.702L45.281,5.101Z"/>
                </g>
                <g transform="matrix(0.866025,-0.5,5.55112e-17,1.1547,-168.622,-58)">
                    <path d="M248.261,164.756L242.487,164.756L242.487,167.354L248.261,167.354L248.261,164.756ZM247.298,165.589L247.298,166.521C247.298,166.52 243.449,166.52 243.449,166.52C243.449,166.521 243.449,165.589 243.449,165.589L247.298,165.589Z"/>
                </g>
            </g>
        </g>
    </g>
</svg>
