<?xml version="1.0" encoding="UTF-8" standalone="no"?>
<!DOCTYPE svg PUBLIC "-//W3C//DTD SVG 1.1//EN" "http://www.w3.org/Graphics/SVG/1.1/DTD/svg11.dtd">
<svg width="100%" height="100%" viewBox="0 0 24 24" version="1.1" xmlns="http://www.w3.org/2000/svg" xmlns:xlink="http://www.w3.org/1999/xlink" xml:space="preserve" xmlns:serif="http://www.serif.com/" style="fill-rule:evenodd;clip-rule:evenodd;stroke-linejoin:round;stroke-miterlimit:2;">
    <g transform="matrix(1,0,0,1,-180,0)">
        <g id="tutorials" transform="matrix(1,0,0,1,150,-7.10543e-15)">
            <rect x="30" y="0" width="24" height="24" style="fill:none;"/>
            <g transform="matrix(1,0,0,1,1.20959,-0.299385)">
                <path d="M47.993,4.343L39.764,9.094L39.764,23.826L47.993,19.075L47.993,4.343ZM46.378,8.113L41.378,11L41.378,14L46.378,11.113L46.378,8.113Z"/>
                <g transform="matrix(1,0,0,1,-0.173985,0.904071)">
                    <path d="M46.114,5.583L46.114,2.259L37.886,7.01L37.886,21.741L40.764,20.079L40.764,8.671L46.114,5.583ZM45.281,5.101L39.931,8.19L39.931,19.598C39.931,19.598 38.719,20.298 38.719,20.298C38.719,20.298 38.719,7.491 38.719,7.491C38.719,7.491 45.281,3.702 45.281,3.702L45.281,5.101Z"/>
                </g>
                <g transform="matrix(1,0,0,1,-2.23576,-0.290819)">
                    <path d="M46.114,5.583L46.114,2.259L37.886,7.01L37.886,21.741L40.764,20.079L40.764,8.671L46.114,5.583ZM45.281,5.101L39.931,8.19L39.931,19.598C39.931,19.598 38.719,20.298 38.719,20.298C38.719,20.298 38.719,7.491 38.719,7.491C38.719,7.491 45.281,3.702 45.281,3.702L45.281,5.101Z"/>
                </g>
                <g transform="matrix(1,0,0,1,-4.29754,-1.48571)">
                    <path d="M46.114,5.583L46.114,2.259L37.886,7.01L37.886,21.741L40.764,20.079L40.764,8.671L46.114,5.583ZM45.281,5.101L39.931,8.19L39.931,19.598C39.931,19.598 38.719,20.298 38.719,20.298C38.719,20.298 38.719,7.491 38.719,7.491C38.719,7.491 45.281,3.702 45.281,3.702L45.281,5.101Z"/>
                </g>
            </g>
        </g>
    </g>
</svg>
