<?xml version="1.0" encoding="UTF-8" standalone="no"?>
<!DOCTYPE svg PUBLIC "-//W3C//DTD SVG 1.1//EN" "http://www.w3.org/Graphics/SVG/1.1/DTD/svg11.dtd">
<svg width="100%" height="100%" viewBox="0 0 24 24" version="1.1" xmlns="http://www.w3.org/2000/svg" xmlns:xlink="http://www.w3.org/1999/xlink" xml:space="preserve" xmlns:serif="http://www.serif.com/" style="fill-rule:evenodd;clip-rule:evenodd;stroke-linejoin:round;stroke-miterlimit:2;">
    <g transform="matrix(1,0,0,1,-228,-240)">
        <g id="wrap_line" transform="matrix(1,0,0,1,198,120)">
            <rect x="30" y="120" width="24" height="24" style="fill:none;"/>
            <g id="path4165" transform="matrix(0.6875,0,0,0.6875,31,-579.124)">
                <path d="M10,1043.7L16,1037.7L16,1041.75L25.65,1041.7C29.173,1041.7 29.173,1036.45 25.65,1036.45C16.969,1036.43 0,1036.4 0,1036.4L0,1032.41L26.043,1032.41C33.941,1032.41 33.941,1045.73 26.033,1045.73L16.003,1045.73L15.958,1049.65L10,1043.7ZM0,1041.74L5.333,1041.74L5.333,1045.74L0,1045.74L0,1041.74ZM0,1023.07L32,1023.07L32,1027.07L0,1027.07L0,1023.07Z" style="fill-rule:nonzero;"/>
            </g>
        </g>
    </g>
</svg>
